<svg xmlns="http://www.w3.org/2000/svg" width="32.887" height="31.923" viewBox="0 0 32.887 31.923">
  <g id="logo" transform="translate(-12113.355 -3462.106)">
    <path id="Path_32936" data-name="Path 32936" d="M96.681,6.673a13.458,13.458,0,0,0-5.848-3.586C87.159,1.917,83.747,2,79.735,2c-1.9,0-11.088-.1-12.151.043V21.821L76.6,12.754l6.873,6.854Z" transform="translate(12045.8 3460.14)" fill="#fff" fill-rule="evenodd"/>
    <path id="Path_32937" data-name="Path 32937" d="M67.564,33.788a58.246,58.246,0,0,0,6.109.039c5.123,0,12.924.367,17.226-1.112,6.129-2.117,9.56-6.825,9.541-14.848a19.325,19.325,0,0,0-1.24-7.134L83.494,26.451l-6.9-6.815-9.038,8.777v5.375Z" transform="translate(12045.8 3460.14)" fill="#d92028" fill-rule="evenodd"/>
  </g>
</svg>
